<mxfile host="Electron" modified="2024-03-06T10:19:39.534Z" agent="Mozilla/5.0 (Windows NT 10.0; Win64; x64) AppleWebKit/537.36 (KHTML, like Gecko) draw.io/21.2.8 Chrome/112.0.5615.165 Electron/24.2.0 Safari/537.36" etag="eed_TJIRXanJb010yo9E" version="21.2.8" type="device">
  <diagram name="Страница 1" id="8INgv4HUv2kdrB7y3Faj">
    <mxGraphModel dx="1418" dy="828" grid="1" gridSize="10" guides="1" tooltips="1" connect="1" arrows="1" fold="1" page="1" pageScale="1" pageWidth="827" pageHeight="1169" math="0" shadow="0">
      <root>
        <mxCell id="0" />
        <mxCell id="1" parent="0" />
        <mxCell id="9ae_pQjSZza0cet70vzt-1" value="&lt;font style=&quot;font-size: 15px;&quot;&gt;Сотрудник&lt;/font&gt;" style="shape=umlActor;verticalLabelPosition=bottom;verticalAlign=top;html=1;outlineConnect=0;" parent="1" vertex="1">
          <mxGeometry x="260" y="555" width="30" height="60" as="geometry" />
        </mxCell>
        <mxCell id="9ae_pQjSZza0cet70vzt-3" value="&lt;font style=&quot;font-size: 14px;&quot;&gt;Просмотр списка оборудования&lt;/font&gt;" style="ellipse;whiteSpace=wrap;html=1;" parent="1" vertex="1">
          <mxGeometry x="354" y="475" width="120" height="80" as="geometry" />
        </mxCell>
        <mxCell id="9ae_pQjSZza0cet70vzt-4" value="" style="endArrow=classic;html=1;rounded=0;exitX=0.5;exitY=0.5;exitDx=0;exitDy=0;exitPerimeter=0;" parent="1" source="9ae_pQjSZza0cet70vzt-1" target="9ae_pQjSZza0cet70vzt-3" edge="1">
          <mxGeometry width="50" height="50" relative="1" as="geometry">
            <mxPoint x="140" y="710" as="sourcePoint" />
            <mxPoint x="190" y="660" as="targetPoint" />
          </mxGeometry>
        </mxCell>
        <mxCell id="9ae_pQjSZza0cet70vzt-5" value="&lt;span style=&quot;font-size: 15px;&quot;&gt;Руководитель группы&lt;/span&gt;" style="shape=umlActor;verticalLabelPosition=bottom;verticalAlign=top;html=1;outlineConnect=0;" parent="1" vertex="1">
          <mxGeometry x="510" y="555" width="30" height="60" as="geometry" />
        </mxCell>
        <mxCell id="9ae_pQjSZza0cet70vzt-6" value="" style="endArrow=classic;html=1;rounded=0;exitX=0.5;exitY=0.5;exitDx=0;exitDy=0;exitPerimeter=0;entryX=1;entryY=0.5;entryDx=0;entryDy=0;" parent="1" source="9ae_pQjSZza0cet70vzt-5" target="9ae_pQjSZza0cet70vzt-3" edge="1">
          <mxGeometry width="50" height="50" relative="1" as="geometry">
            <mxPoint x="560" y="730" as="sourcePoint" />
            <mxPoint x="610" y="680" as="targetPoint" />
          </mxGeometry>
        </mxCell>
        <mxCell id="9ae_pQjSZza0cet70vzt-7" value="&lt;font style=&quot;font-size: 14px;&quot;&gt;Просмотр списка сотрудников&lt;/font&gt;" style="ellipse;whiteSpace=wrap;html=1;" parent="1" vertex="1">
          <mxGeometry x="340" y="600" width="120" height="80" as="geometry" />
        </mxCell>
        <mxCell id="9ae_pQjSZza0cet70vzt-8" value="" style="endArrow=classic;html=1;rounded=0;exitX=0.5;exitY=0.5;exitDx=0;exitDy=0;exitPerimeter=0;entryX=1;entryY=0.5;entryDx=0;entryDy=0;" parent="1" source="9ae_pQjSZza0cet70vzt-5" target="9ae_pQjSZza0cet70vzt-7" edge="1">
          <mxGeometry width="50" height="50" relative="1" as="geometry">
            <mxPoint x="640" y="820" as="sourcePoint" />
            <mxPoint x="690" y="770" as="targetPoint" />
          </mxGeometry>
        </mxCell>
        <mxCell id="9ae_pQjSZza0cet70vzt-9" value="&lt;span style=&quot;font-size: 15px;&quot;&gt;Администратор&lt;/span&gt;" style="shape=umlActor;verticalLabelPosition=bottom;verticalAlign=top;html=1;outlineConnect=0;" parent="1" vertex="1">
          <mxGeometry x="40" y="380" width="30" height="60" as="geometry" />
        </mxCell>
        <mxCell id="9ae_pQjSZza0cet70vzt-10" value="" style="endArrow=classic;html=1;rounded=0;exitX=0.5;exitY=0.5;exitDx=0;exitDy=0;exitPerimeter=0;entryX=-0.033;entryY=0.313;entryDx=0;entryDy=0;entryPerimeter=0;" parent="1" source="9ae_pQjSZza0cet70vzt-9" target="9ae_pQjSZza0cet70vzt-3" edge="1">
          <mxGeometry width="50" height="50" relative="1" as="geometry">
            <mxPoint x="220" y="430" as="sourcePoint" />
            <mxPoint x="270" y="380" as="targetPoint" />
          </mxGeometry>
        </mxCell>
        <mxCell id="9ae_pQjSZza0cet70vzt-11" value="&lt;span style=&quot;font-size: 14px;&quot;&gt;Просмотр истории входа сотрудников&lt;/span&gt;" style="ellipse;whiteSpace=wrap;html=1;" parent="1" vertex="1">
          <mxGeometry x="190" y="300" width="120" height="80" as="geometry" />
        </mxCell>
        <mxCell id="9ae_pQjSZza0cet70vzt-12" value="" style="endArrow=classic;html=1;rounded=0;exitX=0.5;exitY=0.5;exitDx=0;exitDy=0;exitPerimeter=0;entryX=0;entryY=0.5;entryDx=0;entryDy=0;" parent="1" source="9ae_pQjSZza0cet70vzt-9" target="9ae_pQjSZza0cet70vzt-11" edge="1">
          <mxGeometry width="50" height="50" relative="1" as="geometry">
            <mxPoint x="70" y="790" as="sourcePoint" />
            <mxPoint x="120" y="740" as="targetPoint" />
          </mxGeometry>
        </mxCell>
        <mxCell id="9ae_pQjSZza0cet70vzt-13" value="&lt;span style=&quot;font-size: 14px;&quot;&gt;Просмотр статуса обородования&lt;/span&gt;" style="ellipse;whiteSpace=wrap;html=1;" parent="1" vertex="1">
          <mxGeometry x="300" y="376" width="120" height="80" as="geometry" />
        </mxCell>
        <mxCell id="9ae_pQjSZza0cet70vzt-14" value="" style="endArrow=classic;html=1;rounded=0;exitX=0.5;exitY=0.5;exitDx=0;exitDy=0;exitPerimeter=0;entryX=0;entryY=0.5;entryDx=0;entryDy=0;" parent="1" source="9ae_pQjSZza0cet70vzt-9" target="9ae_pQjSZza0cet70vzt-13" edge="1">
          <mxGeometry width="50" height="50" relative="1" as="geometry">
            <mxPoint x="150" y="820" as="sourcePoint" />
            <mxPoint x="200" y="770" as="targetPoint" />
          </mxGeometry>
        </mxCell>
        <mxCell id="bKVUVC-vdVxVl8gQOIj9-2" value="" style="endArrow=none;dashed=1;html=1;rounded=0;exitX=0.5;exitY=0.5;exitDx=0;exitDy=0;exitPerimeter=0;entryX=0.5;entryY=0.5;entryDx=0;entryDy=0;entryPerimeter=0;" edge="1" parent="1" source="9ae_pQjSZza0cet70vzt-1" target="9ae_pQjSZza0cet70vzt-5">
          <mxGeometry width="50" height="50" relative="1" as="geometry">
            <mxPoint x="170" y="680" as="sourcePoint" />
            <mxPoint x="220" y="630" as="targetPoint" />
          </mxGeometry>
        </mxCell>
        <mxCell id="bKVUVC-vdVxVl8gQOIj9-3" value="include" style="edgeLabel;html=1;align=center;verticalAlign=middle;resizable=0;points=[];" vertex="1" connectable="0" parent="bKVUVC-vdVxVl8gQOIj9-2">
          <mxGeometry x="-0.096" relative="1" as="geometry">
            <mxPoint as="offset" />
          </mxGeometry>
        </mxCell>
      </root>
    </mxGraphModel>
  </diagram>
</mxfile>
